<svg width="86" height="40" viewBox="0 0 86 40" fill="none" xmlns="http://www.w3.org/2000/svg">
<g id="VISA">
<g id="Visa_Inc._logo">
<path id="polygon9" d="M36.5862 31.6592H30.1504L34.1758 6.76904H40.6113L36.5862 31.6592Z" fill="#151515"/>
<path id="path11" d="M59.917 7.37754C58.6476 6.87393 56.6342 6.31787 54.1446 6.31787C47.789 6.31787 43.3135 9.70699 43.286 14.5524C43.2332 18.1274 46.4904 20.113 48.9265 21.305C51.4164 22.523 52.2628 23.318 52.2628 24.4037C52.2375 26.0712 50.2508 26.8398 48.3979 26.8398C45.8284 26.8398 44.4516 26.4435 42.3594 25.5158L41.5119 25.1182L40.6113 30.7055C42.1208 31.3931 44.9017 32.0034 47.789 32.0301C54.5419 32.0301 58.9383 28.6935 58.9904 23.5299C59.016 20.6965 57.2961 18.5254 53.5882 16.7513C51.3372 15.6124 49.9587 14.8445 49.9587 13.6793C49.9851 12.6199 51.1246 11.5349 53.6656 11.5349C55.7578 11.4818 57.2951 11.9847 58.4596 12.488L59.0417 12.7523L59.917 7.37754Z" fill="#151515"/>
<path id="path13" fill-rule="evenodd" clip-rule="evenodd" d="M71.437 6.76904H76.4151L81.6072 31.6588H75.6483C75.6483 31.6588 75.0651 28.799 74.8803 27.9252H66.6173C66.3783 28.5868 65.2666 31.6588 65.2666 31.6588H58.5137L68.0732 8.83419C68.7356 7.21881 69.9019 6.76904 71.437 6.76904ZM71.0404 15.8774C71.0404 15.8774 69.0009 21.4116 68.4709 22.8415H73.8203C73.5557 21.5971 72.3369 15.6392 72.3369 15.6392L71.8871 13.4945C71.6977 14.0468 71.4238 14.8061 71.2391 15.3182C71.1138 15.6653 71.0296 15.8989 71.0404 15.8774Z" fill="#151515"/>
<path id="path15" d="M24.7752 6.76904L18.4724 23.7417L17.7837 20.2995C16.6184 16.3276 12.9639 12.0121 8.88574 9.86641L14.6589 31.6328H21.4646L31.5805 6.76904H24.7752V6.76904Z" fill="#151515"/>
<path id="path17" d="M12.6197 6.76904H2.26511L2.15918 7.27196C10.2364 9.33745 15.5858 14.3163 17.7836 20.3005L15.5327 8.86129C15.1621 7.2716 14.0232 6.82148 12.6197 6.76904Z" fill="#151515"/>
</g>
<path id="Rectangle" opacity="0.01" fill-rule="evenodd" clip-rule="evenodd" d="M0 0H86V40H0V0Z" fill="white"/>
</g>
</svg>
