<svg width="120" height="40" viewBox="0 0 120 40" fill="none" xmlns="http://www.w3.org/2000/svg">
<g id="PAYPALL">
<g id="PayPal">
<path id="Shape" fill-rule="evenodd" clip-rule="evenodd" d="M45.7388 12.0959H39.5616C39.1391 12.0957 38.7793 12.403 38.7135 12.8203L36.2152 28.6602C36.1919 28.809 36.235 28.9604 36.3329 29.0747C36.4309 29.1891 36.574 29.2547 36.7246 29.2545H39.6736C40.0964 29.2547 40.4563 28.9469 40.5217 28.5292L41.1955 24.257C41.2609 23.8396 41.6203 23.5319 42.0428 23.5317H43.9983C48.0673 23.5317 50.4157 21.5627 51.029 17.6607C51.3054 15.9536 51.0407 14.6123 50.2414 13.673C49.3634 12.6415 47.8063 12.0959 45.7388 12.0959ZM46.4514 17.8811C46.1136 20.0976 44.4201 20.0976 42.7825 20.0976H41.8504L42.5043 15.9581C42.5439 15.7079 42.7595 15.5237 43.0128 15.5237H43.4401C44.5555 15.5237 45.6078 15.5237 46.1515 16.1596C46.4758 16.5389 46.5752 17.1025 46.4514 17.8811ZM61.2454 17.8098H64.2034C64.3537 17.8097 64.4965 17.8756 64.594 17.9899C64.6915 18.1043 64.7339 18.2557 64.7101 18.4041L63.1114 28.5283C63.046 28.946 62.6861 29.2538 62.2633 29.2536H59.5988C59.4482 29.2534 59.3052 29.1872 59.2076 29.0726C59.1099 28.9579 59.0674 28.8062 59.0912 28.6575L59.223 27.8356C59.223 27.8356 57.7625 29.5291 55.1287 29.5291C53.5941 29.5291 52.3043 29.0865 51.4029 28.0243C50.4202 26.8691 50.0183 25.2126 50.301 23.4802C50.8447 20.0073 53.6366 17.5316 56.9054 17.5316C58.3306 17.5316 59.7586 17.8423 60.399 18.7717L60.6059 19.0716L60.7368 18.2442C60.7764 17.994 60.9921 17.8098 61.2454 17.8098ZM60.0802 23.5669C59.7948 25.2569 58.4535 26.3913 56.7428 26.3913C55.8838 26.3913 55.1974 26.1158 54.7566 25.5938C54.3194 25.0753 54.1532 24.3374 54.2923 23.5154C54.5588 21.8399 55.9226 20.6685 57.6072 20.6685C58.4472 20.6685 59.13 20.9476 59.5798 21.4741C60.0305 22.0061 60.2094 22.7486 60.0802 23.5669ZM76.985 17.8098H79.9575C80.149 17.8098 80.3247 17.9163 80.4135 18.086C80.5022 18.2558 80.4894 18.4608 80.3802 18.6181L70.4935 32.8891C70.3331 33.1203 70.0694 33.258 69.7881 33.2576H66.8192C66.6265 33.2577 66.45 33.1502 66.3615 32.9791C66.2731 32.808 66.2876 32.6018 66.3992 32.4447L69.4774 28.0993L66.2032 18.4908C66.1495 18.3333 66.1751 18.1596 66.2721 18.0245C66.3691 17.8893 66.5254 17.8093 66.6918 17.8098H69.6128C69.9924 17.8099 70.3271 18.0587 70.4366 18.4221L72.1744 24.2254L76.2741 18.1864C76.4343 17.9512 76.7004 17.8102 76.985 17.8098Z" fill="#151515"/>
<path id="Shape_2" fill-rule="evenodd" clip-rule="evenodd" d="M109.215 28.6601L111.751 12.5303C111.79 12.2803 112.005 12.0959 112.258 12.095H115.112C115.263 12.0952 115.406 12.1613 115.503 12.2757C115.601 12.3902 115.643 12.5416 115.62 12.6902L113.12 28.5292C113.055 28.9474 112.695 29.2545 112.272 29.2545H109.723C109.572 29.2545 109.43 29.1886 109.332 29.0743C109.234 28.96 109.192 28.8086 109.215 28.6601ZM89.7995 12.0959H83.6214C83.1993 12.0961 82.8399 12.4033 82.7742 12.8203L80.2759 28.6601C80.2523 28.8086 80.295 28.96 80.3927 29.0743C80.4903 29.1886 80.6331 29.2545 80.7835 29.2545H83.9538C84.2493 29.254 84.5005 29.0388 84.5463 28.7468L85.2553 24.2569C85.3207 23.8396 85.6801 23.5319 86.1026 23.5316H88.0572C92.1271 23.5316 94.4746 21.5626 95.0888 17.6606C95.3661 15.9536 95.0996 14.6123 94.3002 13.6729C93.4232 12.6414 91.867 12.0959 89.7995 12.0959ZM90.5121 17.881C90.1752 20.0976 88.4817 20.0976 86.8432 20.0976H85.912L86.5668 15.9581C86.6056 15.7078 86.8212 15.5233 87.0744 15.5236H87.5017C88.6162 15.5236 89.6694 15.5236 90.2132 16.1595C90.5374 16.5388 90.6359 17.1025 90.5121 17.881ZM105.307 17.8097H108.263C108.414 17.8095 108.557 17.8752 108.655 17.9894C108.753 18.1037 108.796 18.2552 108.774 18.404L107.174 28.5283C107.109 28.9456 106.749 29.2533 106.327 29.2536H103.663C103.512 29.2539 103.369 29.1879 103.271 29.0732C103.173 28.9584 103.13 28.8065 103.154 28.6574L103.286 27.8355C103.286 27.8355 101.825 29.529 99.1912 29.529C97.6566 29.529 96.3686 29.0865 95.4654 28.0243C94.4827 26.869 94.0826 25.2125 94.3644 23.4801C94.9081 20.0072 97.6991 17.5315 100.968 17.5315C102.393 17.5315 103.82 17.8422 104.461 18.7716L104.668 19.0715L104.799 18.2441C104.838 17.9937 105.054 17.809 105.307 17.8097ZM104.14 23.5668C103.856 25.2568 102.513 26.3912 100.803 26.3912C99.9454 26.3912 99.2572 26.1157 98.8164 25.5937C98.3792 25.0752 98.2148 24.3373 98.3521 23.5154C98.6204 21.8399 99.9824 20.6684 101.667 20.6684C102.507 20.6684 103.19 20.9475 103.64 21.4741C104.092 22.0061 104.271 22.7485 104.14 23.5668Z" fill="#151515"/>
<path id="Shape_3" d="M10.5625 32.3326L11.0349 29.332L9.98265 29.3076H4.95801L8.44988 7.16687C8.47136 7.02705 8.59203 6.92406 8.73349 6.92481H17.2057C20.0184 6.92481 21.9594 7.5101 22.9728 8.66532C23.4479 9.20726 23.7505 9.77358 23.8968 10.3968C24.0504 11.0507 24.0531 11.832 23.9032 12.7849L23.8923 12.8545V13.4651L24.3674 13.7342C24.7301 13.918 25.0561 14.1665 25.3294 14.4676C25.7358 14.931 25.9987 15.5199 26.1097 16.2181C26.2245 16.9362 26.1865 17.7906 25.9987 18.758C25.7819 19.8707 25.4314 20.8399 24.9581 21.6329C24.5405 22.3434 23.9791 22.9587 23.3097 23.4394C22.6811 23.8856 21.9341 24.2243 21.0896 24.4411C20.2713 24.6542 19.3383 24.7617 18.3149 24.7617H17.6556C17.1841 24.7617 16.7261 24.9315 16.3667 25.2359C16.0077 25.5435 15.7695 25.9686 15.6947 26.4354L15.645 26.7055L14.8104 31.9938L14.7725 32.188C14.7625 32.2495 14.7454 32.2802 14.7201 32.3009C14.6956 32.321 14.665 32.3321 14.6334 32.3326H10.5625Z" fill="#253B80"/>
<path id="Shape_4" d="M24.8179 12.925C24.7926 13.0867 24.7637 13.252 24.7312 13.4218C23.6139 19.1582 19.7915 21.1399 14.9095 21.1399H12.4239C11.8268 21.1399 11.3237 21.5734 11.2307 22.1623L9.95805 30.2336L9.59766 32.5214C9.5686 32.7051 9.6214 32.8923 9.74213 33.0337C9.86287 33.1751 10.0395 33.2566 10.2254 33.2567H14.634C15.1561 33.2567 15.5996 32.8773 15.6818 32.3625L15.7251 32.1385L16.5552 26.8709L16.6085 26.5818C16.6898 26.0652 17.1342 25.6858 17.6562 25.6858H18.3156C22.5869 25.6858 25.9307 23.9516 26.908 18.9333C27.3162 16.8369 27.1049 15.0865 26.0246 13.8554C25.6822 13.4745 25.2733 13.1593 24.8179 12.925V12.925Z" fill="#636363"/>
<path id="Shape_5" d="M23.6489 12.459C23.2922 12.3558 22.9293 12.2752 22.5623 12.2178C21.8373 12.1064 21.1046 12.0529 20.3711 12.0579H13.7306C13.2084 12.0575 12.764 12.438 12.6838 12.9539L11.2711 21.9013L11.2305 22.1623C11.3214 21.5738 11.8281 21.1396 12.4236 21.1399H14.9093C19.7912 21.1399 23.6137 19.1573 24.731 13.4218C24.7644 13.252 24.7924 13.0867 24.8177 12.925C24.5229 12.7704 24.2156 12.6408 23.8991 12.5376C23.8161 12.51 23.7327 12.4838 23.6489 12.459Z" fill="#393939"/>
<path id="Shape_6" d="M12.6835 12.9539C12.7631 12.4377 13.2081 12.0572 13.7304 12.0588H20.3709C21.1576 12.0588 21.8919 12.1103 22.5621 12.2187C23.0156 12.29 23.4629 12.3966 23.8998 12.5375C24.2295 12.6468 24.5357 12.776 24.8184 12.925C25.1508 10.8052 24.8157 9.36181 23.6695 8.05484C22.4059 6.616 20.1252 6 17.2069 6H8.73463C8.1385 6 7.62999 6.43355 7.53786 7.02335L4.00896 29.3917C3.97569 29.6019 4.03604 29.8161 4.17414 29.978C4.31223 30.1399 4.51424 30.2333 4.72702 30.2335H9.9576L11.2709 21.9013L12.6835 12.9539Z" fill="#151515"/>
</g>
<path id="Rectangle" opacity="0.01" fill-rule="evenodd" clip-rule="evenodd" d="M0 0H120V40H0V0Z" fill="white"/>
</g>
</svg>
