<svg width="68" height="68" viewBox="0 0 68 68" fill="none" xmlns="http://www.w3.org/2000/svg">
<g id="icon">
<g id="Group">
<rect id="Rectangle 15" opacity="0.01" width="68" height="68" fill="white"/>
<g id="Asset 2">
<path id="Shape" d="M37.635 16.2659H29.963C29.7753 16.2659 29.623 16.4181 29.623 16.6059C29.623 16.7937 29.7753 16.9459 29.963 16.9459H37.635C37.8227 16.9459 37.975 16.7937 37.975 16.6059C37.975 16.4181 37.8227 16.2659 37.635 16.2659Z" fill="black"/>
<path id="Shape_2" fill-rule="evenodd" clip-rule="evenodd" d="M50.2903 44.13H56.4505C58.1397 44.1318 59.5086 45.5007 59.5104 47.19V54.064C59.5086 55.7532 58.1397 57.1221 56.4505 57.124H42.5002C40.8109 57.1221 39.442 55.7532 39.4402 54.064V47.19C39.442 45.5007 40.8109 44.1318 42.5002 44.13H49.6103V39.871C49.6087 38.5572 48.5441 37.4926 47.2303 37.491H20.9151C19.6014 37.4926 18.5367 38.5572 18.5351 39.871V44.13H25.1705C26.8597 44.1318 28.2286 45.5007 28.2305 47.19V54.064C28.2286 55.7532 26.8597 57.1221 25.1705 57.124H11.2202C9.53093 57.1221 8.162 55.7532 8.16016 54.064V47.19C8.162 45.5007 9.53093 44.1318 11.2202 44.13H17.8551V39.871C17.857 38.1817 19.2259 36.8128 20.9151 36.811H33.4589V29.753H26.8588C25.1696 29.7511 23.8007 28.3822 23.7988 26.693V13.26C23.8007 11.5708 25.1696 10.2018 26.8588 10.2H40.2918C41.981 10.2018 43.35 11.5708 43.3518 13.26V26.693C43.35 28.3822 41.981 29.7511 40.2918 29.753H34.1389V36.811H47.2303C48.9195 36.8128 50.2884 38.1817 50.2903 39.871V44.13ZM27.5505 47.19C27.5489 45.8762 26.4842 44.8116 25.1705 44.81H11.2202C9.90638 44.8115 8.84175 45.8762 8.84016 47.19V54.064C8.84175 55.3778 9.90638 56.4424 11.2202 56.444H25.1705C26.4842 56.4424 27.5489 55.3778 27.5505 54.064V47.19ZM26.8588 29.073C25.5451 29.0714 24.4804 28.0068 24.4788 26.693V13.26C24.4804 11.9462 25.5451 10.8816 26.8588 10.88H40.2918C41.6056 10.8816 42.6702 11.9462 42.6718 13.26V26.693C42.6702 28.0068 41.6056 29.0714 40.2918 29.073L26.8588 29.073ZM56.4505 56.444C57.7642 56.4424 58.8289 55.3778 58.8305 54.064V47.19C58.8289 45.8762 57.7642 44.8116 56.4505 44.81H42.5002C41.1864 44.8115 40.1217 45.8762 40.1202 47.19V54.064C40.1217 55.3778 41.1864 56.4424 42.5002 56.444H56.4505Z" fill="black"/>
<path id="Shape_3" d="M37.635 22.3859H29.963C29.7753 22.3859 29.623 22.5381 29.623 22.7259C29.623 22.9137 29.7753 23.0659 29.963 23.0659H37.635C37.8227 23.0659 37.975 22.9137 37.975 22.7259C37.975 22.5381 37.8227 22.3859 37.635 22.3859Z" fill="black"/>
<path id="Shape_4" d="M53.3107 50.2871H45.6388C45.4511 50.2871 45.2988 50.4393 45.2988 50.6271C45.2988 50.8149 45.4511 50.9671 45.6388 50.9671H53.3107C53.4985 50.9671 53.6507 50.8149 53.6507 50.6271C53.6507 50.4393 53.4985 50.2871 53.3107 50.2871Z" fill="black"/>
<path id="Shape_5" d="M14.3595 50.9671H22.0314C22.2192 50.9671 22.3714 50.8149 22.3714 50.6271C22.3714 50.4393 22.2192 50.2871 22.0314 50.2871H14.3595C14.1718 50.2871 14.0195 50.4393 14.0195 50.6271C14.0195 50.8149 14.1718 50.9671 14.3595 50.9671Z" fill="black"/>
</g>
</g>
</g>
</svg>
